<svg width="20" height="20" viewBox="0 0 20 20" fill="none" xmlns="http://www.w3.org/2000/svg">
<g clip-path="url(#clip0_10706_314900)">
<path d="M19.0229 7.64318L15.7904 4.41068C15.6332 4.25889 15.4227 4.17489 15.2042 4.17679C14.9858 4.17869 14.7767 4.26633 14.6222 4.42084C14.4677 4.57534 14.3801 4.78435 14.3782 5.00285C14.3763 5.22135 14.4603 5.43185 14.6121 5.58902L17.8446 8.82152C17.9406 8.91946 18.0246 9.02857 18.0946 9.14652C18.0821 9.14652 18.0721 9.13985 18.0596 9.13985L4.98958 9.16652C4.76857 9.16652 4.55661 9.25432 4.40033 9.4106C4.24405 9.56688 4.15625 9.77884 4.15625 9.99985C4.15625 10.2209 4.24405 10.4328 4.40033 10.5891C4.55661 10.7454 4.76857 10.8332 4.98958 10.8332L18.0546 10.8065C18.0779 10.8065 18.0971 10.7949 18.1196 10.7932C18.0457 10.9342 17.9519 11.0638 17.8412 11.1782L14.6088 14.4107C14.5292 14.4876 14.4657 14.5795 14.422 14.6812C14.3783 14.7829 14.3553 14.8922 14.3544 15.0029C14.3534 15.1135 14.3745 15.2232 14.4164 15.3256C14.4583 15.4281 14.5202 15.5211 14.5984 15.5993C14.6767 15.6776 14.7697 15.7395 14.8721 15.7814C14.9745 15.8233 15.0843 15.8444 15.1949 15.8434C15.3056 15.8424 15.4149 15.8194 15.5166 15.7758C15.6183 15.7321 15.7102 15.6686 15.7871 15.589L19.0196 12.3565C19.6445 11.7314 19.9955 10.8837 19.9955 9.99985C19.9955 9.11597 19.6445 8.26828 19.0196 7.64318H19.0229Z" fill="#222222"/>
<path d="M5.83333 18.3333H4.16667C3.50363 18.3333 2.86774 18.0699 2.3989 17.6011C1.93006 17.1323 1.66667 16.4964 1.66667 15.8333V4.16667C1.66667 3.50363 1.93006 2.86774 2.3989 2.3989C2.86774 1.93006 3.50363 1.66667 4.16667 1.66667H5.83333C6.05435 1.66667 6.26631 1.57887 6.42259 1.42259C6.57887 1.26631 6.66667 1.05435 6.66667 0.833333C6.66667 0.61232 6.57887 0.400358 6.42259 0.244078C6.26631 0.0877974 6.05435 0 5.83333 0L4.16667 0C3.062 0.00132321 2.00296 0.440735 1.22185 1.22185C0.440735 2.00296 0.00132321 3.062 0 4.16667L0 15.8333C0.00132321 16.938 0.440735 17.997 1.22185 18.7782C2.00296 19.5593 3.062 19.9987 4.16667 20H5.83333C6.05435 20 6.26631 19.9122 6.42259 19.7559C6.57887 19.5996 6.66667 19.3877 6.66667 19.1667C6.66667 18.9457 6.57887 18.7337 6.42259 18.5774C6.26631 18.4211 6.05435 18.3333 5.83333 18.3333Z" fill="#222222"/>
</g>
<defs>
<clipPath id="clip0_10706_314900">
<rect width="20" height="20" fill="white"/>
</clipPath>
</defs>
</svg>
